<svg xmlns="http://www.w3.org/2000/svg" xmlns:xlink="http://www.w3.org/1999/xlink" width="2500" zoomAndPan="magnify" viewBox="0 0 1874.88 1874.999927" height="2500" preserveAspectRatio="xMidYMid meet" version="1.0"><defs><g/><clipPath id="id1"><path d="M 187.488281 187.546875 L 1687.390625 187.546875 L 1687.390625 1687.453125 L 187.488281 1687.453125 Z M 187.488281 187.546875 " clip-rule="nonzero"/></clipPath></defs><g clip-path="url(#id1)"><path fill="#292929" d="M 466.171875 187.546875 L 187.488281 466.230469 L 187.488281 1408.769531 L 466.171875 1687.453125 L 1408.710938 1687.453125 L 1687.390625 1408.769531 L 1687.390625 466.230469 L 1408.710938 187.546875 L 466.171875 187.546875 M 491.070312 239.59375 L 1383.8125 239.59375 L 1635.34375 491.128906 L 1635.34375 1383.871094 L 1383.8125 1635.40625 L 491.070312 1635.40625 L 239.535156 1383.871094 L 239.535156 491.128906 L 491.070312 239.59375 " fill-opacity="1" fill-rule="nonzero"/></g><g fill="#292929" fill-opacity="1"><g transform="translate(554.95561, 1121.988109)"><g><path d="M 18 -446.972656 L 18 0 L 233.984375 0 L 233.984375 -364.777344 C 233.984375 -382.777344 238.183594 -400.175781 256.183594 -400.175781 C 274.78125 -400.175781 274.183594 -373.777344 274.183594 -356.378906 L 274.183594 0 L 490.769531 0 L 490.769531 -333.578125 C 490.769531 -352.175781 486.570312 -400.175781 512.367188 -400.175781 C 530.964844 -400.175781 530.367188 -373.777344 530.367188 -356.378906 L 530.367188 0 L 746.953125 0 L 746.953125 -317.378906 C 746.953125 -385.175781 710.953125 -458.96875 604.761719 -458.96875 C 536.367188 -458.96875 494.367188 -432.574219 472.769531 -404.972656 C 452.371094 -437.371094 413.972656 -458.96875 348.578125 -458.96875 C 295.179688 -458.96875 257.984375 -442.773438 233.984375 -422.972656 L 233.984375 -446.972656 Z M 18 -446.972656 "/></g></g></g><path stroke-linecap="round" transform="matrix(11.253511, 0, 0, 11.24928, 547.98364, 1291.85223)" fill="none" stroke-linejoin="miter" d="M 0.499909 -0.0000593083 L 68.741112 -0.0000593083 " stroke="#292929" stroke-width="1" stroke-opacity="1" stroke-miterlimit="4"/></svg>